<svg width="224" height="49" viewBox="0 0 224 49" fill="none" xmlns="http://www.w3.org/2000/svg">
<rect width="224" height="49" fill="white"/>
<g clip-path="url(#clip0_90_57)">
<path fill-rule="evenodd" clip-rule="evenodd" d="M47.6116 40.9929C47.6116 44.6663 45.1923 48 41.6602 48C28.5127 48 17.8545 37.2548 17.8545 24C17.8545 10.7452 28.5127 0 41.6602 0C45.1923 0 47.6116 3.33375 47.6116 7.00718V40.9929Z" fill="#257CFE"/>
<path fill-rule="evenodd" clip-rule="evenodd" d="M29.7571 24C29.7571 37.2548 19.0989 48 5.9514 48C2.41929 48 0 44.6663 0 40.9929V7.00714C0 3.33374 2.41929 0 5.9514 0C19.0989 0 29.7571 10.7452 29.7571 24Z" fill="#0066FF"/>
</g>
<path d="M70.2973 27.5V39H61.9473V10.5H70.3973L77.9473 22C79.0806 23.7 79.9473 25.1333 80.5473 26.3H80.6973V21.5V10.5H88.9973V39H80.4973L72.7473 27L70.4973 23.6H70.3473L70.2973 27.5ZM108.605 29.9V39H99.6055V30L90.0055 10.5H99.1555L102.955 19.75C103.355 20.6833 103.722 21.6667 104.055 22.7H104.155C104.522 21.5667 104.889 20.55 105.255 19.65L109.005 10.5H118.105L108.605 29.9ZM135.198 39H126.198V16.75H118.148V10.5H143.248V16.75H135.198V39ZM159.627 33C160.46 33 162.01 32.9167 164.277 32.75C164.577 32.75 165.127 32.7167 165.927 32.65L166.677 37.8C164.11 39 160.777 39.6 156.677 39.6C152.844 39.6 149.894 38.6333 147.827 36.7C145.794 34.7667 144.777 31.85 144.777 27.95C144.777 25.95 145.027 24.0167 145.527 22.15C146.06 20.2833 146.66 18.9833 147.327 18.25C148.027 17.5167 149.327 16.8833 151.227 16.35C153.127 15.8167 155.01 15.55 156.877 15.55C159.877 15.55 162.127 16.0833 163.627 17.15C165.127 18.2167 166.11 19.7 166.577 21.6C167.044 23.4667 167.277 25.9833 167.277 29.15C165.01 29.2833 162.794 29.35 160.627 29.35H153.527C153.527 30.4167 153.744 31.2167 154.177 31.75C154.644 32.2833 155.294 32.6333 156.127 32.8C156.96 32.9333 158.127 33 159.627 33ZM154.027 21.5C153.827 21.6 153.677 22.0333 153.577 22.8C153.477 23.5667 153.41 24.4333 153.377 25.4H155.977C157.544 25.4 158.677 25.3833 159.377 25.35C159.377 23.75 159.144 22.6167 158.677 21.95C158.244 21.2833 157.477 20.95 156.377 20.95C155.477 20.95 154.694 21.1333 154.027 21.5ZM189.636 38.3C186.936 39.2 183.92 39.65 180.586 39.65C176.853 39.65 174.053 38.7167 172.186 36.85C170.353 34.95 169.436 32 169.436 28C169.436 26.0333 169.703 24.1 170.236 22.2C170.77 20.2667 171.336 18.9667 171.936 18.3C172.636 17.5333 174.003 16.8833 176.036 16.35C178.103 15.8167 180.236 15.55 182.436 15.55C184.736 15.55 187.053 15.75 189.386 16.15C189.32 16.9833 189.203 17.9667 189.036 19.1C188.903 20.2 188.753 21.1833 188.586 22.05C186.52 21.9167 184.57 21.85 182.736 21.85C180.936 21.85 179.786 21.95 179.286 22.15C179.02 22.25 178.77 22.9333 178.536 24.2C178.336 25.4667 178.236 26.65 178.236 27.75C178.236 29.2167 178.436 30.35 178.836 31.15C179.27 31.9167 179.936 32.45 180.836 32.75C181.736 33.05 182.953 33.2 184.486 33.2C185.153 33.2 186.62 33.1333 188.886 33L189.636 38.3ZM214.753 17.45C215.053 17.8167 215.27 18.7333 215.403 20.2C215.57 21.6667 215.653 23.9 215.653 26.9V39H207.103V27C207.103 26.8667 207.103 26.2167 207.103 25.05C207.103 23.85 207.02 23.1167 206.853 22.85C206.753 22.7167 206.503 22.6167 206.103 22.55C205.736 22.4833 205.303 22.45 204.803 22.45L203.953 22.5C203.02 22.5333 202.053 22.75 201.053 23.15V39H192.503V9L201.053 8.65V14.5C201.053 16.9 200.97 18.5 200.803 19.3L200.853 19.35C203.12 16.7833 205.836 15.5 209.003 15.5C210.203 15.5 211.32 15.6667 212.353 16C213.42 16.3333 214.22 16.8167 214.753 17.45Z" fill="black"/>
<defs>
<clipPath id="clip0_90_57">
<rect width="48" height="48" fill="white"/>
</clipPath>
</defs>
</svg>
